# xmcd CD database file
#
# Track frame offsets:
#	150
#	2170
#	17601
#	29999
#	46294
#	59231
#	76812
#	88208
#	91567
#	98513
#	114912
#	117456
#	119972
#	129705
#	141641
#	162406
#	175238
#	186451
#	204876
#	211170
#	214734
#	222241
#	234212
#	236875
#	239228
#
# Disc length: 3326 seconds
#
# Revision: 2
# Processed by: cddbd v1.5.2PL0 Copyright (c) Steve Scherf et al.
# Submitted via: CDex 1.70beta2
#
DISCID=770cfc19
DTITLE=KEUR MOUSSA - Vendredi
DYEAR=1900
DGENRE=
TTITLE0=Cloches
TTITLE1=Hymne Benis soit-tu, Seigneur
TTITLE2=Antienne De jour en jour
TTITLE3=Antienne Dieu n'a pas fait la mort
TTITLE4=Antienne Sans beauté
TTITLE5=Antienne Son éclat e Cantique
TTITLE6=Lecture
TTITLE7=Répons Le christ s'est fait pour nous
TTITLE8=Antienne Tu es beau et Cantique de Zacharie
TTITLE9=Prière Litanique
TTITLE10=Oraison
TTITLE11=Interludes
TTITLE12=Hymne Vraie lumière sans couchant
TTITLE13=Que ma prière et Psaume
TTITLE14=Antienne Heureux ceux qui ont faim
TTITLE15=Antienne que ma prière et Paume 140
TTITLE16=Antienne déjà le prince de ce monde
TTITLE17=Antienne Lumière née de la lumière
TTITLE18=Antienne Voici maintenant et Cantique
TTITLE19=Lecture
TTITLE20=Répons Chante ton créateur
TTITLE21=Antienne L'eau Et Cantique de Marie
TTITLE22=Prière Litanique
TTITLE23=Oraison
TTITLE24=Interlude
EXTD=
EXTT0=
EXTT1=
EXTT2=
EXTT3=
EXTT4=
EXTT5=
EXTT6=
EXTT7=
EXTT8=
EXTT9=
EXTT10=
EXTT11=
EXTT12=
EXTT13=
EXTT14=
EXTT15=
EXTT16=
EXTT17=
EXTT18=
EXTT19=
EXTT20=
EXTT21=
EXTT22=
EXTT23=
EXTT24=
PLAYORDER=
